<svg width="774" height="611" viewBox="0 0 774 611" fill="none" xmlns="http://www.w3.org/2000/svg">
<rect width="774" height="611" fill="#E5E5E5"/>
<g id="undraw_web_developer_re_h7ie 1">
<path id="bigBlock" d="M559.126 233H122V416.558H559.126V233Z" fill="white"/>
<path id="headerBlock" d="M572.641 202H109V221.697H572.641V202Z" fill="#63FFFF"/>
<g id="options">
<path id="Ellipse 90" d="M125.651 215.301C127.667 215.301 129.301 213.667 129.301 211.651C129.301 209.634 127.667 208 125.651 208C123.634 208 122 209.634 122 211.651C122 213.667 123.634 215.301 125.651 215.301Z" fill="#842BA3"/>
<path id="Ellipse 91" d="M139.508 215.301C141.524 215.301 143.158 213.667 143.158 211.651C143.158 209.634 141.524 208 139.508 208C137.491 208 135.857 209.634 135.857 211.651C135.857 213.667 137.491 215.301 139.508 215.301Z" fill="#8F2CBD"/>
<path id="Ellipse 92" d="M153.365 215.301C155.382 215.301 157.016 213.667 157.016 211.651C157.016 209.634 155.382 208 153.365 208C151.349 208 149.715 209.634 149.715 211.651C149.715 213.667 151.349 215.301 153.365 215.301Z" fill="#9E1DA0"/>
</g>
<g id="small blocks">
<path id="Vector" d="M364.59 257H218V291.175H364.59V257Z" fill="#63FFEC"/>
<path id="Vector_2" d="M364.59 300.692H218V337.463H364.59V300.692Z" fill="#F2F2F2"/>
<path id="Vector_3" d="M449.307 257.002H376.631V381.157H449.307V257.002Z" fill="#F2F2F2"/>
<path id="Vector_4" d="M364.59 346.98H218V381.155H364.59V346.98Z" fill="#F2F2F2"/>
</g>
</g>
</svg>
